<svg version="1.2" xmlns="http://www.w3.org/2000/svg" viewBox="0 0 1548 208" width="1548" height="208">
	<title>CampusCSR_0-pdf-svg</title>
	<defs>
		<clipPath clipPathUnits="userSpaceOnUse" id="cp1">
			<path d="m-4539.32-469.4h6501.41v4590.76h-6501.41z"/>
		</clipPath>
	</defs>
	<style>
		.s0 { fill: #e82532 } 
		.s1 { fill: #231f20 } 
	</style>
	<g id="Clip-Path: Page 1" clip-path="url(#cp1)">
		<g id="Page 1">
			<path id="Path 20" class="s0" d="m461.1 44.4c0.3-5-3.5-9.6-8.5-10q-2.7 0-4.7 0.8h-0.4l-174.8 79q-3.1 1.1-6.6 1.1c-7.7-0.7-13.1-7.3-12.4-15q0-2.3 0.8-3.9l19.7-50.8 0.4-0.8q0.4-1.2 0.4-2.3c0.7-5.8-3.5-10.8-9.3-11.2-2.3-0.4-4.2 0.4-6.2 1.2l-72.2 42-92.2 53.2c0 0-6.2 4.6-12.8 4.2-9.6-1.1-16.6-9.2-15.8-18.9 0.4-3.1 1.9-6.1 1.9-6.1q0-0.4 0-0.4l20.9-40.9q1.1-1.9 1.5-4.6c0.4-5.4-3.5-10.4-9.3-10.8q-1.9-0.4-3.8 0.4 0.4 0 0.8-0.4c-42.1 13.1-73.8 50.5-78 96.7 0 0-0.4 3.5-0.4 4.7-1.2 28.1 18.5 53.5 47.1 55.9 13.9 1.5 27-3.1 37.1-11.2l35.9-27.4 79.9-60.9c1.9-1.5 4.6-2.3 7.3-1.9q2.3 0 4.6 1.5c3.1 2 5.1 5.4 4.7 9.7q0 0.3 0 1.1-0.4 1.2-0.8 1.9v0.4l-15.4 38.2v0.4q-1.2 2.7-1.6 5.8c-0.8 9.6 5 18.1 13.9 21.2q1.2 0.3 2.3 0.7 0 0 0.4 0 1.2 0.4 2.3 0.4 0.8 0 1.2 0c3.5 0 6.9-0.8 10-2.3q1.2-0.4 2.3-1.5l224.7-131.9h0.4l0.4-0.4c2.3-1.5 3.9-3.8 4.3-6.9z"/>
			<path id="Path 21" fill-rule="evenodd" class="s1" d="m1477.6 193.6c-26.3 0-56.4-10.4-83-35.9l28.5-29.6c26.3 25.4 56.8 28.5 73.8 20.8 4.6-2.3 10-6.6 9.6-13.1 0-1.2-0.4-3.9-5-7.4-4.6-3.8-12-6.1-18.5-8.1-4.3-1.5-8.5-2.7-13.1-3.8-7.4-1.9-14.7-4.2-22.4-6.6-15.5-5.4-26.7-12.7-34.8-21.9-6.2-7.4-10-17-10.8-27-1.9-22.4 10-42 32.1-52.8 27.4-13.5 73.7-12.4 110.4 21.2l-28.2 30.4c-20.9-19.6-48.7-22.3-64.5-14.6-9.3 4.6-8.9 10.4-8.9 12.3 0.4 1.6 0.8 3.1 1.6 3.9q4.6 5.4 16.6 9.6c6.2 2.3 12.7 3.9 19.7 5.8q7.3 1.9 14.6 4.2c9.7 3.1 21.3 7 30.9 14.3 12.8 9.6 20.1 22.3 21.3 37 1.9 22.4-10.9 42.8-33.2 53.6-10.5 5-23.2 7.7-36.7 7.7zm-844.4-3.9h-46.3c-50.9 0-92.3-41.2-92.3-92.1 0-50.9 41.4-92.5 92.3-92.5h46.3v41.2h-46.3c-28.2 0-51.3 22.8-51.3 51.3 0 28.1 23.1 51.3 51.3 51.3h46.3zm474.9 0h-41.3v-97.2h79.1c13.2 0 23.6-10.4 23.6-23.1 0-13.1-10.4-23.5-23.6-23.5h-80.6v-41.2h80.6c35.6 0 64.9 28.9 64.9 64.7 0 35.5-29.3 64.4-64.9 64.4h-37.8zm198.8-0.4c-42 0-73.7-33.2-73.7-77.1v-107.2h41.3v107.2c0 17.7 11.2 35.8 32.4 35.8 21.3 0 32.5-18.1 32.5-35.8v-107.2h41.3v107.2c0 43.9-31.7 77.1-73.8 77.1zm-272.9-184.3v184.7h-40.6v-105.6l-51.3 62.4-50.6-61.7v104.9h-40.9v-184.7h28.6l62.9 77.1 63.3-77.1zm-296.9 0h7l84.9 184.7h-45.2l-43.2-94.1-43.2 94.1h-45.2z"/>
		</g>
	</g>
</svg>